<mxfile host="app.diagrams.net" agent="Mozilla/5.0 (Windows NT 10.0; Win64; x64) AppleWebKit/537.36 (KHTML, like Gecko) Chrome/138.0.0.0 Safari/537.36" version="28.0.1">
  <diagram name="第 1 页" id="XN6WbOP7wRev5Zxsz_oX">
    <mxGraphModel dx="1213" dy="1800" grid="1" gridSize="10" guides="1" tooltips="1" connect="1" arrows="1" fold="1" page="1" pageScale="1" pageWidth="827" pageHeight="1169" math="0" shadow="0">
      <root>
        <mxCell id="0" />
        <mxCell id="1" parent="0" />
        <mxCell id="umgCvMGF8Q4jKKfUTwUB-12" value="" style="group" vertex="1" connectable="0" parent="1">
          <mxGeometry x="219" y="39.99999999999999" width="389.86" height="197.76" as="geometry" />
        </mxCell>
        <mxCell id="umgCvMGF8Q4jKKfUTwUB-1" value="阿里云入口" style="whiteSpace=wrap;html=1;fillColor=#ffe6cc;strokeColor=#d79b00;rounded=0;align=center;verticalAlign=top;" vertex="1" parent="umgCvMGF8Q4jKKfUTwUB-12">
          <mxGeometry width="389.86" height="197.76" as="geometry" />
        </mxCell>
        <mxCell id="umgCvMGF8Q4jKKfUTwUB-3" value="SLB-CLB&lt;div&gt;&lt;span style=&quot;color: rgb(51, 51, 51); font-family: -apple-system, BlinkMacSystemFont, &amp;quot;Segoe UI&amp;quot;, &amp;quot;PingFang SC&amp;quot;, &amp;quot;Hiragino Sans GB&amp;quot;, &amp;quot;Microsoft YaHei&amp;quot;, &amp;quot;Helvetica Neue&amp;quot;, Helvetica, Arial, sans-serif; text-align: start; white-space: pre; background-color: rgb(255, 255, 255);&quot;&gt;47.104.191.53&lt;/span&gt;&lt;/div&gt;&lt;div&gt;&lt;span style=&quot;color: rgb(51, 51, 51); font-family: -apple-system, BlinkMacSystemFont, &amp;quot;Segoe UI&amp;quot;, &amp;quot;PingFang SC&amp;quot;, &amp;quot;Hiragino Sans GB&amp;quot;, &amp;quot;Microsoft YaHei&amp;quot;, &amp;quot;Helvetica Neue&amp;quot;, Helvetica, Arial, sans-serif; text-align: start; white-space: pre; background-color: rgb(255, 255, 255);&quot;&gt;&lt;span style=&quot;white-space: normal;&quot;&gt;15 Mbps&lt;/span&gt;&lt;/span&gt;&lt;/div&gt;" style="rounded=0;whiteSpace=wrap;html=1;" vertex="1" parent="umgCvMGF8Q4jKKfUTwUB-12">
          <mxGeometry x="110.18" y="42.38000000000001" width="169.5" height="50" as="geometry" />
        </mxCell>
        <mxCell id="umgCvMGF8Q4jKKfUTwUB-4" value="&lt;span style=&quot;color: rgb(51, 51, 51); font-family: -apple-system, BlinkMacSystemFont, &amp;quot;Segoe UI&amp;quot;, &amp;quot;PingFang SC&amp;quot;, &amp;quot;Hiragino Sans GB&amp;quot;, &amp;quot;Microsoft YaHei&amp;quot;, &amp;quot;Helvetica Neue&amp;quot;, Helvetica, Arial, sans-serif; text-align: start; background-color: rgb(246, 248, 250);&quot;&gt;jmcloud-nginx-2&lt;/span&gt;&lt;br&gt;&lt;div&gt;&lt;span style=&quot;color: rgb(51, 51, 51); font-family: -apple-system, BlinkMacSystemFont, &amp;quot;Segoe UI&amp;quot;, &amp;quot;PingFang SC&amp;quot;, &amp;quot;Hiragino Sans GB&amp;quot;, &amp;quot;Microsoft YaHei&amp;quot;, &amp;quot;Helvetica Neue&amp;quot;, Helvetica, Arial, sans-serif; text-align: start; white-space: pre; background-color: rgb(255, 255, 255);&quot;&gt;47.104.156.177&lt;/span&gt;&lt;/div&gt;&lt;div&gt;&lt;span style=&quot;color: rgb(51, 51, 51); font-family: -apple-system, BlinkMacSystemFont, &amp;quot;Segoe UI&amp;quot;, &amp;quot;PingFang SC&amp;quot;, &amp;quot;Hiragino Sans GB&amp;quot;, &amp;quot;Microsoft YaHei&amp;quot;, &amp;quot;Helvetica Neue&amp;quot;, Helvetica, Arial, sans-serif; text-align: start; white-space: pre; background-color: rgb(255, 255, 255);&quot;&gt;&lt;span style=&quot;box-sizing: border-box; overscroll-behavior-x: none; white-space: normal; background-color: rgb(247, 249, 250);&quot;&gt;&lt;span style=&quot;box-sizing: border-box; overscroll-behavior-x: none;&quot;&gt;&lt;span style=&quot;box-sizing: border-box; overscroll-behavior-x: none; font-weight: bolder;&quot; data-spm-anchor-id=&quot;5176.ecscore_server.0.i1.7d0b4df59nE4pS&quot;&gt;4&lt;/span&gt;&amp;nbsp;核（vCPU）&lt;/span&gt;&lt;span style=&quot;box-sizing: border-box; overscroll-behavior-x: none;&quot;&gt;&lt;span style=&quot;box-sizing: border-box; overscroll-behavior-x: none; font-weight: bolder;&quot;&gt;8&lt;/span&gt;&lt;span style=&quot;box-sizing: border-box; overscroll-behavior-x: none;&quot;&gt;&amp;nbsp;GiB&lt;/span&gt;&lt;/span&gt;&lt;/span&gt;&lt;span style=&quot;box-sizing: border-box; overscroll-behavior-x: none; white-space: normal; background-color: rgb(247, 249, 250); margin-left: 4px;&quot; class=&quot;ecs-core-tooltip-open&quot;&gt;&lt;span style=&quot;box-sizing: border-box; overscroll-behavior-x: none;&quot;&gt;&lt;span style=&quot;box-sizing: border-box; overscroll-behavior-x: none;&quot; data-spm-anchor-id=&quot;5176.ecscore_server.0.i0.7d0b4df59nE4pS&quot;&gt;10 Mbps&lt;/span&gt;&lt;/span&gt;&lt;/span&gt;&lt;/span&gt;&lt;/div&gt;" style="rounded=0;whiteSpace=wrap;html=1;" vertex="1" parent="umgCvMGF8Q4jKKfUTwUB-12">
          <mxGeometry x="19.775507246376833" y="127.13142857142857" width="169.5" height="50" as="geometry" />
        </mxCell>
        <mxCell id="umgCvMGF8Q4jKKfUTwUB-9" value="&lt;div&gt;&lt;span style=&quot;color: rgb(51, 51, 51); font-family: -apple-system, BlinkMacSystemFont, &amp;quot;Segoe UI&amp;quot;, &amp;quot;PingFang SC&amp;quot;, &amp;quot;Hiragino Sans GB&amp;quot;, &amp;quot;Microsoft YaHei&amp;quot;, &amp;quot;Helvetica Neue&amp;quot;, Helvetica, Arial, sans-serif; text-align: start; background-color: rgb(246, 248, 250);&quot;&gt;jmcloud-nginx-2&lt;/span&gt;&lt;span style=&quot;color: rgb(51, 51, 51); font-family: -apple-system, BlinkMacSystemFont, &amp;quot;Segoe UI&amp;quot;, &amp;quot;PingFang SC&amp;quot;, &amp;quot;Hiragino Sans GB&amp;quot;, &amp;quot;Microsoft YaHei&amp;quot;, &amp;quot;Helvetica Neue&amp;quot;, Helvetica, Arial, sans-serif; text-align: start; white-space: pre; background-color: rgb(255, 255, 255);&quot;&gt;&lt;/span&gt;&lt;/div&gt;&lt;span style=&quot;color: rgb(51, 51, 51); font-family: -apple-system, BlinkMacSystemFont, &amp;quot;Segoe UI&amp;quot;, &amp;quot;PingFang SC&amp;quot;, &amp;quot;Hiragino Sans GB&amp;quot;, &amp;quot;Microsoft YaHei&amp;quot;, &amp;quot;Helvetica Neue&amp;quot;, Helvetica, Arial, sans-serif; text-align: start; white-space: pre; background-color: rgb(255, 255, 255);&quot;&gt;118.190.148.26&lt;/span&gt;&lt;div&gt;&lt;span style=&quot;color: rgb(51, 51, 51); font-family: -apple-system, BlinkMacSystemFont, &amp;quot;Segoe UI&amp;quot;, &amp;quot;PingFang SC&amp;quot;, &amp;quot;Hiragino Sans GB&amp;quot;, &amp;quot;Microsoft YaHei&amp;quot;, &amp;quot;Helvetica Neue&amp;quot;, Helvetica, Arial, sans-serif; text-align: start; white-space: pre; background-color: rgb(255, 255, 255);&quot;&gt;&lt;span style=&quot;box-sizing: border-box; overscroll-behavior-x: none; white-space: normal; background-color: rgb(247, 249, 250);&quot;&gt;&lt;span style=&quot;box-sizing: border-box; overscroll-behavior-x: none;&quot;&gt;&lt;span style=&quot;box-sizing: border-box; overscroll-behavior-x: none; font-weight: bolder;&quot; data-spm-anchor-id=&quot;5176.ecscore_server.0.i1.7d0b4df59nE4pS&quot;&gt;4&lt;/span&gt;&amp;nbsp;核（vCPU）&lt;/span&gt;&lt;span style=&quot;box-sizing: border-box; overscroll-behavior-x: none;&quot;&gt;&lt;span style=&quot;box-sizing: border-box; overscroll-behavior-x: none; font-weight: bolder;&quot;&gt;8&lt;/span&gt;&lt;span style=&quot;box-sizing: border-box; overscroll-behavior-x: none;&quot;&gt;&amp;nbsp;GiB&lt;/span&gt;&lt;/span&gt;&lt;/span&gt;&lt;span style=&quot;box-sizing: border-box; overscroll-behavior-x: none; white-space: normal; background-color: rgb(247, 249, 250); margin-left: 4px;&quot; class=&quot;ecs-core-tooltip-open&quot;&gt;&lt;span style=&quot;box-sizing: border-box; overscroll-behavior-x: none;&quot;&gt;&lt;span style=&quot;box-sizing: border-box; overscroll-behavior-x: none;&quot; data-spm-anchor-id=&quot;5176.ecscore_server.0.i0.7d0b4df59nE4pS&quot;&gt;10 Mbps&lt;/span&gt;&lt;/span&gt;&lt;/span&gt;&lt;/span&gt;&lt;/div&gt;" style="whiteSpace=wrap;html=1;rounded=0;" vertex="1" parent="umgCvMGF8Q4jKKfUTwUB-12">
          <mxGeometry x="203.4052173913044" y="127.13142857142857" width="169.5" height="50" as="geometry" />
        </mxCell>
        <mxCell id="umgCvMGF8Q4jKKfUTwUB-5" value="" style="edgeStyle=orthogonalEdgeStyle;rounded=0;orthogonalLoop=1;jettySize=auto;html=1;" edge="1" parent="umgCvMGF8Q4jKKfUTwUB-12" source="umgCvMGF8Q4jKKfUTwUB-3" target="umgCvMGF8Q4jKKfUTwUB-4">
          <mxGeometry relative="1" as="geometry" />
        </mxCell>
        <mxCell id="umgCvMGF8Q4jKKfUTwUB-6" value="" style="edgeStyle=orthogonalEdgeStyle;rounded=0;orthogonalLoop=1;jettySize=auto;html=1;" edge="1" parent="umgCvMGF8Q4jKKfUTwUB-12" source="umgCvMGF8Q4jKKfUTwUB-3" target="umgCvMGF8Q4jKKfUTwUB-4">
          <mxGeometry relative="1" as="geometry" />
        </mxCell>
        <mxCell id="umgCvMGF8Q4jKKfUTwUB-7" value="" style="edgeStyle=orthogonalEdgeStyle;rounded=0;orthogonalLoop=1;jettySize=auto;html=1;" edge="1" parent="umgCvMGF8Q4jKKfUTwUB-12" source="umgCvMGF8Q4jKKfUTwUB-3" target="umgCvMGF8Q4jKKfUTwUB-4">
          <mxGeometry relative="1" as="geometry" />
        </mxCell>
        <mxCell id="umgCvMGF8Q4jKKfUTwUB-8" value="" style="edgeStyle=orthogonalEdgeStyle;rounded=0;orthogonalLoop=1;jettySize=auto;html=1;" edge="1" parent="umgCvMGF8Q4jKKfUTwUB-12" source="umgCvMGF8Q4jKKfUTwUB-3" target="umgCvMGF8Q4jKKfUTwUB-4">
          <mxGeometry relative="1" as="geometry" />
        </mxCell>
        <mxCell id="umgCvMGF8Q4jKKfUTwUB-10" value="" style="edgeStyle=orthogonalEdgeStyle;rounded=0;orthogonalLoop=1;jettySize=auto;html=1;" edge="1" parent="umgCvMGF8Q4jKKfUTwUB-12" source="umgCvMGF8Q4jKKfUTwUB-3" target="umgCvMGF8Q4jKKfUTwUB-9">
          <mxGeometry relative="1" as="geometry" />
        </mxCell>
        <mxCell id="umgCvMGF8Q4jKKfUTwUB-13" value="营销云" style="whiteSpace=wrap;html=1;fillColor=#dae8fc;strokeColor=#6c8ebf;rounded=0;align=center;verticalAlign=top;" vertex="1" parent="1">
          <mxGeometry x="219.07" y="340" width="389.86" height="197.76" as="geometry" />
        </mxCell>
        <mxCell id="umgCvMGF8Q4jKKfUTwUB-14" value="" style="edgeStyle=orthogonalEdgeStyle;rounded=0;orthogonalLoop=1;jettySize=auto;html=1;" edge="1" parent="1" source="umgCvMGF8Q4jKKfUTwUB-1" target="umgCvMGF8Q4jKKfUTwUB-13">
          <mxGeometry relative="1" as="geometry" />
        </mxCell>
        <mxCell id="umgCvMGF8Q4jKKfUTwUB-15" value="景区云" style="whiteSpace=wrap;html=1;fillColor=#f8cecc;strokeColor=#b85450;rounded=0;align=center;verticalAlign=top;" vertex="1" parent="1">
          <mxGeometry x="870" y="317.76" width="389.86" height="197.76" as="geometry" />
        </mxCell>
        <mxCell id="umgCvMGF8Q4jKKfUTwUB-16" value="" style="edgeStyle=orthogonalEdgeStyle;rounded=0;orthogonalLoop=1;jettySize=auto;html=1;" edge="1" parent="1" source="umgCvMGF8Q4jKKfUTwUB-1" target="umgCvMGF8Q4jKKfUTwUB-15">
          <mxGeometry relative="1" as="geometry" />
        </mxCell>
        <mxCell id="umgCvMGF8Q4jKKfUTwUB-24" style="edgeStyle=orthogonalEdgeStyle;rounded=0;orthogonalLoop=1;jettySize=auto;html=1;entryX=0.5;entryY=0;entryDx=0;entryDy=0;" edge="1" parent="1" source="umgCvMGF8Q4jKKfUTwUB-22" target="umgCvMGF8Q4jKKfUTwUB-1">
          <mxGeometry relative="1" as="geometry" />
        </mxCell>
        <mxCell id="umgCvMGF8Q4jKKfUTwUB-22" value="&lt;div style=&quot;&quot;&gt;&lt;font style=&quot;&quot;&gt;&lt;span style=&quot;text-wrap-mode: nowrap;&quot;&gt;zzwh-test-h5.jm-cloud.cn&lt;/span&gt;&lt;/font&gt;&lt;/div&gt;&lt;div style=&quot;text-wrap-mode: nowrap;&quot;&gt;&lt;font&gt;H5入口 自在威海-智慧旅游平台&lt;/font&gt;&lt;/div&gt;" style="whiteSpace=wrap;html=1;verticalAlign=middle;fillColor=#fad9d5;strokeColor=#ae4132;rounded=0;" vertex="1" parent="1">
          <mxGeometry x="314" y="-80" width="200" height="58.88" as="geometry" />
        </mxCell>
      </root>
    </mxGraphModel>
  </diagram>
</mxfile>
